<svg xmlns="http://www.w3.org/2000/svg" width="405" height="250" fill="none" viewBox="0 0 405 250"><rect width="160" height="40" x="154.011" y="60.469" fill="#00C9DC" rx="20" transform="rotate(145 154.011 60.4692)"/><rect width="160" height="40" x="22.943" y="96.434" fill="#0C55FE" opacity=".75" rx="20" transform="rotate(35 22.9431 96.4339)"/><rect width="160" height="40" x="22.943" y="96.434" fill="#0C55FE" opacity=".75" rx="20" transform="rotate(35 22.9431 96.4339)"/><rect width="160" height="40" x="250" y="188.206" fill="#00C9DC" rx="20" transform="rotate(-35 250 188.206)"/><rect width="160" height="40" x="381.068" y="152.241" fill="#0C55FE" opacity=".75" rx="20" transform="rotate(-145 381.068 152.241)"/><rect width="160" height="40" x="381.068" y="152.241" fill="#0C55FE" opacity=".75" rx="20" transform="rotate(-145 381.068 152.241)"/><rect width="245.092" height="40.345" fill="#0C55FE" opacity=".75" rx="20.172" transform="matrix(0.258819 -0.965926 0.949446 0.313929 150.919 236.741)"/><rect width="245.092" height="40.345" fill="#0C55FE" opacity=".75" rx="20.172" transform="matrix(0.258819 -0.965926 0.949446 0.313929 150.919 236.741)"/></svg>